<?xml version="1.0" encoding="UTF-8"?>
<svg width="118px" height="72px" viewBox="0 0 118 72" version="1.1" xmlns="http://www.w3.org/2000/svg" xmlns:xlink="http://www.w3.org/1999/xlink">
    <!-- Generator: Sketch 47 (45396) - http://www.bohemiancoding.com/sketch -->
    <title>Logo</title>
    <desc>Created with Sketch.</desc>
    <defs>
        <polygon id="path-1" points="0.0569328877 0.0415714286 3.99600426 0.0415714286 3.99600426 8.87191429 0.0569328877 8.87191429"></polygon>
    </defs>
    <g id="Page-1" stroke="none" stroke-width="1" fill="none" fill-rule="evenodd">
        <g id="Logo">
            <path d="M51.857472,8.25956597 C51.9704107,8.70034199 52.419516,9 52.9136642,9 C52.9928206,9 53.0747923,8.99259566 53.1537831,8.97531887 C53.7385142,8.85888199 54.1056477,8.35117653 53.9728371,7.83868004 L52.1427996,0.741982831 C52.009989,0.229341154 51.4280731,-0.0925298742 50.8463229,0.0237618232 C50.2615919,0.140198704 49.8944583,0.647904155 50.0271033,1.16054583 L51.857472,8.25956597 Z" id="Fill-1" fill="#00B9C7"></path>
            <path d="M39.7250905,8.29753867 C39.3340652,7.90517643 38.696611,7.89999572 38.3005094,8.28717726 C37.9042541,8.6743588 37.899024,9.30594773 38.2898955,9.69830997 L43.2749293,14.7037856 C43.4716726,14.9012619 43.7313306,15 43.9911424,15 C44.2457242,15 44.5027671,14.9038522 44.6995104,14.7115566 C45.0957657,14.3243751 45.1009958,13.6927861 44.7099705,13.3004239 L39.7250905,8.29753867 Z" id="Fill-3" fill="#00B9C7"></path>
            <path d="M41.567679,34.0749902 L34.6686913,36.8815812 C34.1270279,37.1013745 33.861491,37.7381556 34.0723161,38.3006121 C34.2337241,38.7345071 34.6305053,39 35.0518347,39 C35.1777843,39 35.3064614,38.9772339 35.4322505,38.9258428 L42.3310778,36.1192518 C42.8729016,35.8992911 43.1384385,35.2626774 42.9277739,34.7002209 C42.7169487,34.1349186 42.1093424,33.855197 41.567679,34.0749902 Z" id="Fill-5" fill="#00B9C7"></path>
            <path d="M37.9402982,25 C38.4739279,25 38.9355856,24.5626 38.9936171,23.9753597 C39.0573219,23.3431498 38.6369994,22.7769891 38.0536054,22.7051431 L32.1786539,22.006884 C31.5950978,21.9380242 31.072653,22.3935175 31.0063545,23.0255517 C30.9428117,23.6577616 31.3629721,24.224098 31.9463662,24.2959441 L37.8214797,24.9940275 C37.8600593,25 37.9015566,25 37.9402982,25" id="Fill-7" fill="#00B9C7"></path>
            <path d="M85.8669062,22.0068081 L79.90721,22.7411015 C79.3467116,22.8088771 78.9427727,23.369236 79.0066427,23.9914921 C79.0650604,24.5693137 79.5060751,25 80.0189046,25 C80.0559804,25 80.093212,24.9968879 80.1330918,24.9939486 L86.0926322,24.2596553 C86.6534421,24.1918797 87.0572253,23.6315207 86.9933552,23.0094375 C86.9322893,22.3871814 86.4275603,21.9388596 85.8669062,22.0068081" id="Fill-9" fill="#00B9C7"></path>
            <path d="M80.7044776,8.31949951 C80.2899232,7.91257797 79.5952554,7.89164706 79.1518683,8.27225106 L73.3479393,13.2544236 C72.9048874,13.6350276 72.8819218,14.2729586 73.2964762,14.6798802 C73.5137275,14.8924213 73.8054075,15 74.0999372,15 C74.3686516,15 74.6375336,14.9108897 74.8489178,14.7295911 L80.6530145,9.74741859 C81.0932166,9.36419823 81.1191996,8.72642105 80.7044776,8.31949951" id="Fill-11" fill="#00B9C7"></path>
            <path d="M84.3435896,37.9112738 L77.4028802,35.0739333 C76.8720628,34.8572379 76.2769562,35.1330171 76.0704137,35.6903518 C75.8640284,36.2476865 76.1266863,36.872687 76.657661,37.0893825 L83.5983703,39.9267229 C83.7216042,39.9773897 83.8476674,40 83.9710585,40 C84.3838292,40 84.7725504,39.7382491 84.9306796,39.3103045 C85.1343928,38.7557754 84.874407,38.1279692 84.3435896,37.9112738" id="Fill-13" fill="#00B9C7"></path>
            <g id="Group-17" transform="translate(63.000000, 0.000000)">
                <mask id="mask-2" fill="white">
                    <use xlink:href="#path-1"></use>
                </mask>
                <g id="Clip-16"></g>
                <path d="M0.768874074,8.83777143 C0.8548,8.85962857 0.943244444,8.87191429 1.02917037,8.87191429 C1.45361481,8.87191429 1.84531852,8.59905714 1.96398519,8.18477143 L3.96013333,1.22862857 C4.10428148,0.731485714 3.80102222,0.215057143 3.28294815,0.0760571429 C2.76754074,-0.0628 2.23183704,0.229628571 2.08768889,0.729057143 L0.0916888889,7.6852 C-0.0497925926,8.18477143 0.253466667,8.7012 0.768874074,8.83777143" id="Fill-15" fill="#00B9C7" mask="url(#mask-2)"></path>
            </g>
            <path d="M54.3305913,17.022291 C54.7677085,17.0934142 55.0627004,17.4916743 54.9886022,17.9093181 L54.9272688,18.2552423 C54.9268018,18.2574789 54.9252451,18.2594173 54.9247781,18.2616538 L53.6640186,25.3665189 C53.5871184,25.7801368 53.1741297,26.0598583 52.7393475,25.9890333 L52.6692967,25.9777013 C52.2321794,25.906429 51.9371875,25.5081689 52.0114414,25.0894813 L53.333223,17.6410778 C53.4074769,17.2223903 53.8234232,16.9398358 54.2603848,17.010959 L54.3305913,17.0224401 L54.3305913,17.022291 Z" id="Fill-18" fill="#00B9C7"></path>
            <path d="M53.2142389,14.0236789 C53.7273331,14.0993886 54.0735986,14.5222859 53.9866211,14.965932 L53.9144444,15.3333933 C53.9140789,15.3357692 53.9122517,15.3378282 53.9117035,15.340204 L51.9534305,25.3270739 C51.8629812,25.766602 51.3783922,26.0635804 50.8680389,25.9883459 L50.7856296,25.9761499 C50.2725354,25.9005986 49.9262699,25.477543 50.0134301,25.0327881 L52.0435143,14.6809911 C52.1306746,14.2362362 52.6187353,13.93609 53.1318295,14.0116413 L53.2142389,14.0238373 L53.2142389,14.0236789 Z" id="Fill-20" fill="#00B9C7"></path>
            <path d="M50.115,29.5 C50.0575,29.4069013 50.0205,29.3012969 50.01475,29.1866605 C50.01125,29.1232052 50.00525,29.0620658 50,29 C50.06175,29.2433997 50.088,29.3911533 50.08925,29.3994905 C50.095,29.4342288 50.1045,29.467346 50.115,29.5" id="Fill-22" fill="#00B9C7"></path>
            <path d="M48.2249216,17.6448261 C48.3040076,17.2236905 48.7468562,16.9394841 49.2124193,17.0110231 L49.2871945,17.0225713 L49.2871945,17.0224214 C49.7525918,17.0941104 50.0667805,17.4946991 49.9878603,17.9146348 L49.9225355,18.2625815 C49.9222039,18.2648312 49.920546,18.2667809 49.9200486,18.2690305 L48.7219864,24.6454543 C48.695127,24.7811835 48.6274811,24.9004152 48.5361259,25 C48.1030595,24.667201 47.5940571,24.3780452 47,24.1629781 L48.2249216,17.6448261 Z" id="Fill-24" fill="#00B9C7"></path>
            <path d="M45.1004786,24.2954623 C45.1961222,24.1525242 45.3465972,24.0527178 45.5232418,24.0160633 C45.7000421,23.9783783 45.8810483,24.0073781 46.0319907,24.0990881 C46.0319907,24.0990881 47.6317614,25.1472024 48.6525304,25.7993298 C48.9609574,25.9962928 49.8058607,26.7393941 49.9818822,26.9990674 C50.5315989,27.8101784 50.7878426,28.6445481 50.8887824,29.0506924 C50.8918978,29.0901439 50.8957921,29.1290066 50.8979729,29.1694885 C50.9015557,29.2422088 50.9246098,29.3094824 50.9604372,29.3685125 C51.0141783,29.5369174 51.1646533,29.6598353 51.343946,29.6885406 C51.3937928,29.696637 51.4462877,29.6973731 51.4992499,29.6897183 C51.7649957,29.65115 51.947248,29.4163548 51.906436,29.1652195 C51.9012955,29.1328339 51.8685836,28.9420536 51.7886729,28.6524973 C51.7079834,28.1829067 51.5533026,27.7732294 51.3729194,27.4255263 C51.7706034,27.4031508 52.1421179,27.2631569 52.4440025,27.0374885 C52.7063213,27.4340643 53.1384308,27.7278896 53.6632241,27.8122393 L53.7373712,27.8241631 C54.2439393,27.9055686 54.7375784,27.7745543 55.1189064,27.5026628 C55.3647134,27.8528684 55.7532069,28.1113641 56.2245707,28.1871757 L56.2926428,28.198069 C56.5367363,28.2372261 56.7758452,28.2213277 57,28.163917 C56.5822215,29.8191133 55.5974357,32.4935714 53.6423508,32.2715832 C53.3826801,32.2417001 53.1476213,32.4165821 53.1159997,32.6618291 C53.0857801,32.8992741 53.2580631,33.1158157 53.5058951,33.1557088 C53.5132164,33.1568865 53.5219396,33.1570337 53.5291051,33.1583586 C53.8562247,33.1954548 54.159044,33.1791148 54.4427034,33.1243537 C54.4581248,33.2957028 54.4791539,33.4704376 54.5009619,33.6416394 C54.5956708,34.3938675 54.6944298,35.1717097 54.2511048,35.6214273 C54.0386328,35.8364969 53.6800474,35.9124557 53.4164824,35.9385114 C52.2050495,36.0581907 50.9076307,36.0021048 49.7639582,35.7795277 L49.5014837,35.7302133 C48.6053317,35.5638694 47.1058777,35.2828511 46.8035257,34.5385721 C46.7342075,34.3678119 46.7466692,34.1455292 46.8367049,33.9095563 C47.0114803,33.4520367 47.2973205,33.0160093 47.5992052,32.5542207 C47.738932,32.3392984 47.8786588,32.1183406 48.0115317,31.893997 C48.2934777,32.0787419 48.5880411,32.2546543 48.9095529,32.3984757 C48.9488073,32.4165821 48.9902424,32.4292419 49.0329238,32.4360135 C49.2357379,32.4685462 49.4457176,32.3712423 49.5390245,32.1864975 C49.6514914,31.963626 49.5507074,31.697034 49.3148697,31.5907504 C49.2148646,31.5458523 49.142431,31.5056648 49.0866648,31.4675381 C48.9935136,31.4036503 48.6983271,31.1211599 48.5916238,31.028861 C48.1278928,30.6274274 47.5750607,30.0596497 47.3666387,29.4899583 C47.3108726,29.3374518 47.2971647,29.1759656 47.3142996,29.0112409 C47.3261382,28.8989219 47.4655535,28.4678996 47.5002905,28.3938544 C47.5833165,28.0384966 47.3431173,27.4665971 47.2308062,27.3170347 C47.087964,27.1250767 45.97934,25.9556637 45.787274,25.7584062 C45.0895746,25.0438631 44.8408079,24.6826169 45.1004786,24.2954623" id="Fill-26" fill="#00B9C7"></path>
            <path d="M57.2412592,20.0254406 C57.7367094,20.1067831 58.0710677,20.5611441 57.9870812,21.0377977 L57.9173864,21.4325983 C57.9170335,21.4351509 57.9152691,21.4373631 57.9147398,21.4399157 L56.8860807,27.277008 C56.7989182,27.7492371 56.3308166,28.0683108 55.838013,27.9874788 L55.7584375,27.9743755 C55.2631638,27.8932031 54.9288055,27.438672 55.0129685,26.9608272 L56.1107929,20.7316571 C56.1949559,20.2538123 56.6662335,19.9313351 57.1616837,20.0125075 L57.2412592,20.0256108 L57.2412592,20.0254406 Z" id="Fill-28" fill="#00B9C7"></path>
            <path d="M54.3305913,17.022291 C54.7677085,17.0934142 55.0627004,17.4916743 54.9886022,17.9093181 L54.9272688,18.2552423 C54.9268018,18.2574789 54.9252451,18.2594173 54.9247781,18.2616538 L53.6640186,25.3665189 C53.5871184,25.7801368 53.1741297,26.0598583 52.7393475,25.9890333 L52.6692967,25.9777013 C52.2321794,25.906429 51.9371875,25.5081689 52.0114414,25.0894813 L53.333223,17.6410778 C53.4074769,17.2223903 53.8234232,16.9398358 54.2603848,17.010959 L54.3305913,17.0224401 L54.3305913,17.022291 Z" id="Fill-30" fill="#00B9C7"></path>
            <path d="M53.2142389,14.0236789 C53.7273331,14.0993886 54.0735986,14.5222859 53.9866211,14.965932 L53.9144444,15.3333933 C53.9140789,15.3357692 53.9122517,15.3378282 53.9117035,15.340204 L51.9534305,25.3270739 C51.8629812,25.766602 51.3783922,26.0635804 50.8680389,25.9883459 L50.7856296,25.9761499 C50.2725354,25.9005986 49.9262699,25.477543 50.0134301,25.0327881 L52.0435143,14.6809911 C52.1306746,14.2362362 52.6187353,13.93609 53.1318295,14.0116413 L53.2142389,14.0238373 L53.2142389,14.0236789 Z" id="Fill-32" fill="#00B9C7"></path>
            <path d="M48.2249216,17.6448261 C48.3040076,17.2236905 48.7468562,16.9394841 49.2124193,17.0110231 L49.2871945,17.0225713 L49.2871945,17.0224214 C49.7525918,17.0941104 50.0667805,17.4946991 49.9878603,17.9146348 L49.9225355,18.2625815 C49.9222039,18.2648312 49.920546,18.2667809 49.9200486,18.2690305 L48.7219864,24.6454543 C48.695127,24.7811835 48.6274811,24.9004152 48.5361259,25 C48.1030595,24.667201 47.5940571,24.3780452 47,24.1629781 L48.2249216,17.6448261 Z" id="Fill-34" fill="#00B9C7"></path>
            <path d="M57.2412592,20.0254406 C57.7367094,20.1067831 58.0710677,20.5611441 57.9870812,21.0377977 L57.9173864,21.4325983 C57.9170335,21.4351509 57.9152691,21.4373631 57.9147398,21.4399157 L56.8860807,27.277008 C56.7989182,27.7492371 56.3308166,28.0683108 55.838013,27.9874788 L55.7584375,27.9743755 C55.2631638,27.8932031 54.9288055,27.438672 55.0129685,26.9608272 L56.1107929,20.7316571 C56.1949559,20.2538123 56.6662335,19.9313351 57.1616837,20.0125075 L57.2412592,20.0256108 L57.2412592,20.0254406 Z" id="Fill-36" fill="#00B9C7"></path>
            <path d="M62.6695254,17.0224401 L62.7395763,17.010959 C63.1766935,16.9398358 63.5926398,17.2223903 63.666738,17.6410778 L64.9885194,25.0896304 C65.062929,25.5081689 64.7677815,25.9065781 64.3308199,25.9777013 L64.2607691,25.9890333 C63.8259869,26.0598583 63.4128426,25.7801368 63.3359424,25.3665189 L62.075183,18.2616538 C62.0748717,18.2594173 62.073315,18.2574789 62.072848,18.2552423 L62.0113589,17.9093181 C61.9374164,17.4916743 62.2322526,17.0934142 62.6693698,17.022291 L62.6695254,17.0224401 Z" id="Fill-38" fill="#00B9C7"></path>
            <path d="M64.7857244,14.0238373 L64.8681347,14.0116413 C65.3812348,13.93609 65.8693011,14.2362362 65.9564623,14.6809911 L67.9865697,25.0327881 C68.073731,25.477543 67.7274615,25.9005986 67.2143615,25.9761499 L67.1319512,25.9883459 C66.621592,26.0635804 66.1369975,25.766602 66.0465472,25.3270739 L64.0882519,15.340204 C64.0878864,15.3378282 64.0858764,15.3357692 64.085511,15.3333933 L64.0133334,14.965932 C63.9265377,14.5222859 64.2726244,14.0993886 64.7857244,14.0236789 L64.7857244,14.0238373 Z" id="Fill-40" fill="#00B9C7"></path>
            <path d="M67,29.5 C67.0575,29.4069013 67.0945,29.3012969 67.1,29.1866605 C67.10375,29.1232052 67.10975,29.0620658 67.115,29 C67.0535,29.2433997 67.027,29.3911533 67.02575,29.3994905 C67.02,29.4342288 67.01075,29.467346 67,29.5" id="Fill-42" fill="#00B9C7"></path>
            <path d="M68.775146,17.6448261 C68.6958986,17.2236905 68.2532402,16.9394841 67.7877029,17.0110231 L67.7129317,17.0225713 L67.7129317,17.0224214 C67.2473944,17.0941104 66.933223,17.4946991 67.0121389,17.9146348 L67.0776258,18.2625815 C67.0779574,18.2648312 67.0794495,18.2667809 67.0799468,18.2690305 L68.2781087,24.6454543 C68.3048008,24.7811835 68.372443,24.9004152 68.4637931,25 C68.8968356,24.667201 69.4058099,24.3780452 70,24.1629781 L68.775146,17.6448261 Z" id="Fill-44" fill="#00B9C7"></path>
            <path d="M71.8996104,24.2954623 C71.8039661,24.1525242 71.65349,24.0527178 71.4768441,24.0160633 C71.3000424,23.9783783 71.1190348,24.0073781 70.9680914,24.0990881 C70.9680914,24.0990881 69.3683087,25.1472024 68.3473763,25.7993298 C68.0391027,25.9962928 67.1940373,26.7393941 67.0181703,26.9990674 C66.4684494,27.8101784 66.212048,28.6445481 66.1112633,29.0506924 C66.1079921,29.0901439 66.1042535,29.1290066 66.101917,29.1694885 C66.09849,29.2422088 66.0754356,29.3094824 66.039608,29.3685125 C65.9857107,29.5369174 65.8352346,29.6598353 65.6560963,29.6885406 C65.6062491,29.696637 65.5537538,29.6973731 65.5007912,29.6897183 C65.2350435,29.65115 65.052634,29.4163548 65.0936021,29.1652195 C65.0987426,29.1328339 65.1314548,28.9420536 65.2112103,28.6524973 C65.2920562,28.1829067 65.4467382,27.7732294 65.6269669,27.4255263 C65.2292799,27.4031508 64.8579185,27.2631569 64.5560315,27.0374885 C64.2937108,27.4340643 63.8614423,27.7278896 63.3366451,27.8122393 L63.2626532,27.8241631 C62.7560813,27.9055686 62.2624385,27.7745543 61.8811077,27.5026628 C61.635143,27.8528684 61.2466466,28.1113641 60.7754351,28.1871757 L60.7073625,28.198069 C60.4631114,28.2372261 60.2241565,28.2213277 60,28.163917 C60.4177816,29.8191133 61.402419,32.4935714 63.3575186,32.2715832 C63.6171912,32.2417001 63.8524075,32.4165821 63.8840293,32.6618291 C63.9140934,32.8992741 63.7419649,33.1158157 63.494131,33.1557088 C63.4868097,33.1568865 63.4780864,33.1570337 63.4709209,33.1583586 C63.1437988,33.1954548 62.8408215,33.1791148 62.5571599,33.1243537 C62.5418942,33.2957028 62.5207092,33.4704376 62.498901,33.6416394 C62.4043472,34.3938675 62.3054317,35.1717097 62.7489158,35.6214273 C62.9612336,35.8364969 63.3199774,35.9124557 63.5833886,35.9385114 C64.7949864,36.0581907 66.0924148,36.0021048 67.2360959,35.7795277 L67.4984166,35.7302133 C68.3947311,35.5638694 69.8941963,35.2828511 70.1963948,34.5385721 C70.2658693,34.3678119 70.2534075,34.1455292 70.1633711,33.9095563 C69.9885944,33.4520367 69.7025963,33.0160093 69.4008651,32.5542207 C69.2609815,32.3392984 69.1212536,32.1183406 68.9885355,31.893997 C68.7065875,32.0787419 68.4120218,32.2546543 68.0903518,32.3984757 C68.0510972,32.4165821 68.0096617,32.4292419 67.9671358,32.4360135 C67.7643201,32.4685462 67.5541832,32.3712423 67.4610313,32.1864975 C67.3484078,31.963626 67.4493483,31.697034 67.685032,31.5907504 C67.7851936,31.5458523 67.857472,31.5056648 67.9133943,31.4675381 C68.0063905,31.4036503 68.301735,31.1211599 68.4084391,31.028861 C68.8720178,30.6274274 69.4250098,30.0596497 69.6332775,29.4899583 C69.6891998,29.3374518 69.702752,29.1759656 69.6856171,29.0112409 C69.6739341,28.8989219 69.5345178,28.4678996 69.4997806,28.3938544 C69.4167539,28.0384966 69.656955,27.4665971 69.7691111,27.3170347 C69.9121102,27.1250767 71.0207424,25.9556637 71.2128098,25.7584062 C71.9103587,25.0438631 72.1591272,24.6826169 71.8996104,24.2954623" id="Fill-46" fill="#00B9C7"></path>
            <path d="M59.7587408,20.0256108 L59.8381399,20.0125075 C60.3337666,19.9313351 60.8050442,20.2538123 60.8892072,20.7316571 L61.9870317,26.9608272 C62.0711947,27.438672 61.7368364,27.8932031 61.2413862,27.9743755 L61.1619871,27.9874788 C60.6691835,28.0683108 60.2010819,27.7492371 60.1139193,27.277008 L59.0852602,21.4399157 C59.0847309,21.4373631 59.0829665,21.4351509 59.0824371,21.4325983 L59.0129188,21.0377977 C58.9289323,20.5611441 59.2632906,20.1067831 59.7587408,20.0254406 L59.7587408,20.0256108 Z" id="Fill-48" fill="#00B9C7"></path>
            <path d="M0.458380084,63.8172214 C0.229190042,63.6492698 0,63.3135146 0,62.8767516 C0,62.2723331 0.49116278,61.7686263 1.11331193,61.7686263 C1.34250197,61.7686263 1.57169201,61.8358662 1.73546108,61.9700498 C3.47092216,63.1790348 5.27209305,63.8172214 7.1057578,63.8172214 C9.13597432,63.8172214 10.6096071,62.742568 10.6096071,61.063348 L10.6096071,60.9962562 C10.6096071,59.2499445 8.61202884,58.5782861 6.38540498,57.9402477 C3.7328949,57.1678776 0.785773798,56.2275558 0.785773798,53.0372156 L0.785773798,52.9701238 C0.785773798,49.9812071 3.20894942,48 6.54902963,48 C8.35020052,48 10.3148516,48.5709466 11.952109,49.4776484 C12.2796472,49.6790719 12.5744026,50.0484469 12.5744026,50.5523018 C12.5744026,51.1567203 12.0832398,51.660427 11.4610907,51.660427 C11.2317562,51.660427 11.0353489,51.5931871 10.9043625,51.5260954 C9.46351245,50.6864854 7.92445871,50.1827786 6.48360865,50.1827786 C4.48617483,50.1827786 3.20894942,51.257432 3.20894942,52.7014605 L3.20894942,52.7685523 C3.20894942,54.4141523 5.30473133,55.0521907 7.5642823,55.757469 C10.1838653,56.563311 13,57.6044925 13,60.7275929 L13,60.7948328 C13,64.0857366 10.3476343,66 6.97477143,66 C4.74814757,66 2.29218925,65.16039 0.458380084,63.8172214" id="Fill-50" fill="#00B9C7"></path>
            <path d="M16.2307469,50.1723341 C16.2307469,49.4482937 16.7911113,48.8275138 17.4834973,48.8275138 C18.2087433,48.8275138 18.7692531,49.4139242 18.7692531,50.1723341 L18.7692531,65.6553318 C18.7692531,66.4138938 18.2418941,67 17.5165027,67 C16.7911113,67 16.2307469,66.4138938 16.2307469,65.6553318 L16.2307469,50.1723341 Z M16,43.4138634 C16,42.5517367 16.6593806,42 17.4834973,42 C18.3407648,42 19,42.5517367 19,43.4138634 L19,43.8620354 C19,44.6896405 18.3407648,45.2758988 17.4834973,45.2758988 C16.6593806,45.2758988 16,44.6896405 16,43.8620354 L16,43.4138634 Z" id="Fill-52" fill="#00B9C7"></path>
            <path d="M36.448298,56.5218147 L36.448298,56.4523246 C36.448298,52.7653623 33.2758172,50.3652703 29.8965115,50.3652703 C26.5172058,50.3652703 23.7241575,52.7305406 23.7241575,56.4173495 L23.7241575,56.486993 C23.7241575,60.1043118 26.5862488,62.6088691 29.8965115,62.6088691 C33.2758172,62.6088691 36.448298,60.1391335 36.448298,56.5218147 M22.4827519,69.8783285 C22.0689501,69.6697048 21.7930822,69.2523042 21.7930822,68.7652601 C21.7930822,68.1740576 22.3793395,67.5827016 22.9999662,67.5827016 C23.2413126,67.5827016 23.413768,67.6523451 23.5862235,67.7565035 C25.4482558,69.0087054 27.586308,69.7045266 29.8965115,69.7045266 C33.827553,69.7045266 36.379255,67.5130582 36.379255,63.3043834 L36.379255,61.1827119 C34.8276121,63.2695617 32.6551905,64.9741394 29.3792972,64.9741394 C25.1034969,64.9741394 21,61.739246 21,56.5566365 L21,56.486993 C21,51.2347399 25.1378664,48 29.3792972,48 C32.7240814,48 34.8965031,49.6696026 36.3448856,51.6174722 L36.3448856,49.5651374 C36.3448856,48.8349547 36.8966214,48.208777 37.655182,48.208777 C38.4137427,48.208777 39,48.8349547 39,49.5651374 L39,63.2348933 C39,66.0174109 38.1723963,68.1392358 36.7241659,69.6000614 C35.1380015,71.2001739 32.7586029,72 29.931033,72 C27.2068756,72 24.7242166,71.2696639 22.4827519,69.8783285" id="Fill-54" fill="#00B9C7"></path>
            <path d="M41,49.5196227 C41,48.810525 41.6018207,48.2025568 42.345237,48.2025568 C43.1239353,48.2025568 43.7255998,48.7768648 43.7255998,49.5196227 L43.7255998,51.4108477 C44.9292412,49.5196227 46.8407049,48 49.9910917,48 C54.4159959,48 57,50.8368375 57,54.990592 L57,64.683083 C57,65.4259898 56.3981793,66 55.6549191,66 C54.8760647,66 54.2744002,65.4259898 54.2744002,64.683083 L54.2744002,55.6322204 C54.2744002,52.3901204 52.4336563,50.3639568 49.2123935,50.3639568 C46.0620067,50.3639568 43.7255998,52.559017 43.7255998,55.8349262 L43.7255998,64.683083 C43.7255998,65.4259898 43.1593732,66 42.3805189,66 C41.6018207,66 41,65.4259898 41,64.683083 L41,49.5196227 Z" id="Fill-56" fill="#00B9C7"></path>
            <path d="M58,42.370411 C58,41.6325212 58.6016646,41 59.3450809,41 C60.1237791,41 60.7255998,41.6325212 60.7255998,42.370411 L60.7255998,51.8216602 C61.9290851,49.8540574 63.8407049,48.2730643 66.9910917,48.2730643 C71.4158397,48.2730643 74,51.2244684 74,55.5459736 L74,65.629744 C74,66.4028082 73.3981793,67 72.6549191,67 C71.8760647,67 71.2742441,66.4028082 71.2742441,65.629744 L71.2742441,56.2135144 C71.2742441,52.8404811 69.4336563,50.7324902 66.2123935,50.7324902 C63.0618505,50.7324902 60.7255998,53.0161986 60.7255998,56.4244064 L60.7255998,65.629744 C60.7255998,66.4028082 60.1593732,67 59.3805189,67 C58.6016646,67 58,66.4028082 58,65.629744 L58,42.370411 Z" id="Fill-58" fill="#00B9C7"></path>
            <path d="M90.3617693,57.0666678 L90.3617693,57.0000735 C90.3617693,53.3000498 87.5901028,50.2667037 83.9499247,50.2667037 C80.2095961,50.2667037 77.6382307,53.3000498 77.6382307,56.9333322 L77.6382307,57.0000735 C77.6382307,60.6999502 80.3766119,63.6999257 84.0167899,63.6999257 C87.7569713,63.6999257 90.3617693,60.6999502 90.3617693,57.0666678 M75,57.0666678 L75,57.0000735 C75,52.1332538 78.8071938,48 84.0167899,48 C89.1929535,48 93,52.0666596 93,56.9333322 L93,57.0000735 C93,61.8665992 89.1596681,66 83.9499247,66 C78.7736139,66 75,61.9333404 75,57.0666678" id="Fill-60" fill="#00B9C7"></path>
            <path d="M97.5567334,64.8113335 L92.171393,49.9697774 C92.1028661,49.7660745 92,49.4942209 92,49.2565176 C92,48.6114084 92.5488206,48 93.3377125,48 C94.0237383,48 94.4696929,48.4415561 94.675425,49.0868151 L99.1345171,62.2641481 L103.627948,49.0528146 C103.83368,48.4415561 104.245296,48 104.931322,48 L105.068527,48 C105.788892,48 106.234695,48.4415561 106.440579,49.0528146 L110.899671,62.2641481 L115.42729,49.0188142 C115.598834,48.4755565 115.97611,48 116.696324,48 C117.451028,48 118,48.5774079 118,49.2226669 C118,49.4603703 117.896983,49.7320741 117.828456,49.9359268 L112.408927,64.8113335 C112.134366,65.5924444 111.585545,66 110.968198,66 L110.865332,66 C110.179306,66 109.664824,65.5924444 109.424753,64.8113335 L104.999849,52.0075556 L100.540908,64.8113335 C100.300837,65.5924444 99.7862038,66 99.100178,66 L99.0316511,66 C98.3798131,66 97.8309925,65.5924444 97.5567334,64.8113335" id="Fill-62" fill="#00B9C7"></path>
        </g>
    </g>
</svg>